<svg xmlns="http://www.w3.org/2000/svg" xmlns:xlink="http://www.w3.org/1999/xlink" width="643" height="509" viewBox="0 0 643 509"><defs><path id="kz1ma" d="M490.74 420.94l149.03 209.42V508.42z"/><path id="kz1mb" d="M639.77 508.42v121.94l147.6-209.42z"/><path id="kz1mc" d="M753.05 252.62l86.92 147.97 121.92.48z"/><path id="kz1me" d="M961.9 401.06l-121.93-.47-88.08 148.66z"/><path id="kz1mg" d="M527.84 251.92L319 400.35l121.93-.48z"/><path id="kz1mi" d="M440.93 399.87l-121.93.48 209.99 148.2z"/><path id="kz1mk" d="M639.58 146l-149 246.99 149-66.47z"/><path id="kz1ml" d="M788.6 392.99L639.58 146v180.52z"/><path id="kz1mm" d="M639.58 326.52v154.51L788.6 393z"/><path id="kz1mn" d="M490.57 392.99l149 88.04V326.52z"/><path id="kz1mo" d="M843.8 654.44l41.83-80-204.67 69.88z"/><path id="kz1mq" d="M680.96 644.32l204.67-69.88 41.8-79.98z"/><path id="kz1ms" d="M598.5 644.32l-204.66-69.88 41.82 80z"/><path id="kz1mu" d="M352.03 494.46l41.8 79.98 204.67 69.88z"/><linearGradient id="kz1md" x1="852.94" x2="743.83" y1="322.49" y2="144.42" gradientUnits="userSpaceOnUse"><stop offset="0" stop-color="#b7baf8"/><stop offset=".43" stop-color="#a2a6fb"/><stop offset="1" stop-color="#8187ff"/></linearGradient><linearGradient id="kz1mf" x1="856.31" x2="857.42" y1="560.86" y2="398.63" gradientUnits="userSpaceOnUse"><stop offset="0" stop-color="#8187ff"/><stop offset=".47" stop-color="#8086fd"/><stop offset=".64" stop-color="#7b80f6"/><stop offset=".77" stop-color="#7278eb"/><stop offset=".86" stop-color="#656bda"/><stop offset=".95" stop-color="#555bc4"/><stop offset="1" stop-color="#484db2"/></linearGradient><linearGradient id="kz1mh" x1="441.11" x2="604.57" y1="351.47" y2="221.46" gradientUnits="userSpaceOnUse"><stop offset="0" stop-color="#b7baf8"/><stop offset=".43" stop-color="#a2a6fb"/><stop offset="1" stop-color="#8187ff"/></linearGradient><linearGradient id="kz1mj" x1="423.17" x2="424.46" y1="608.93" y2="398.95" gradientUnits="userSpaceOnUse"><stop offset="0" stop-color="#8187ff"/><stop offset=".47" stop-color="#8086fd"/><stop offset=".64" stop-color="#7b80f6"/><stop offset=".77" stop-color="#7278eb"/><stop offset=".86" stop-color="#656bda"/><stop offset=".95" stop-color="#555bc4"/><stop offset="1" stop-color="#484db2"/></linearGradient><linearGradient id="kz1mp" x1="829.51" x2="780.15" y1="795.33" y2="596.72" gradientUnits="userSpaceOnUse"><stop offset="0" stop-color="#8187ff"/><stop offset=".47" stop-color="#8086fd"/><stop offset=".64" stop-color="#7b80f6"/><stop offset=".77" stop-color="#7278eb"/><stop offset=".86" stop-color="#656bda"/><stop offset=".95" stop-color="#555bc4"/><stop offset="1" stop-color="#484db2"/></linearGradient><linearGradient id="kz1mr" x1="804.96" x2="1011.57" y1="595.29" y2="460.89" gradientUnits="userSpaceOnUse"><stop offset="0" stop-color="#b7baf8"/><stop offset=".43" stop-color="#a2a6fb"/><stop offset="1" stop-color="#8187ff"/></linearGradient><linearGradient id="kz1mt" x1="434.01" x2="501.04" y1="788.74" y2="595.37" gradientUnits="userSpaceOnUse"><stop offset="0" stop-color="#8187ff"/><stop offset=".47" stop-color="#8086fd"/><stop offset=".64" stop-color="#7b80f6"/><stop offset=".77" stop-color="#7278eb"/><stop offset=".86" stop-color="#656bda"/><stop offset=".95" stop-color="#555bc4"/><stop offset="1" stop-color="#484db2"/></linearGradient><linearGradient id="kz1mv" x1="464.68" x2="257.55" y1="589.07" y2="455.5" gradientUnits="userSpaceOnUse"><stop offset="0" stop-color="#b7baf8"/><stop offset=".43" stop-color="#a2a6fb"/><stop offset="1" stop-color="#8187ff"/></linearGradient></defs><g><g opacity=".1" transform="translate(-319 -146)"><use fill="#b7baf8" xlink:href="#kz1ma"/></g><g opacity=".1" transform="translate(-319 -146)"><use fill="#484db2" xlink:href="#kz1mb"/></g><g opacity=".1" transform="translate(-319 -146)"><use fill="url(#kz1md)" xlink:href="#kz1mc"/></g><g opacity=".1" transform="translate(-319 -146)"><use fill="url(#kz1mf)" xlink:href="#kz1me"/></g><g opacity=".1" transform="translate(-319 -146)"><use fill="url(#kz1mh)" xlink:href="#kz1mg"/></g><g opacity=".1" transform="translate(-319 -146)"><use fill="url(#kz1mj)" xlink:href="#kz1mi"/></g><g opacity=".1" transform="translate(-319 -146)"><use fill="#b7baf8" xlink:href="#kz1mk"/></g><g opacity=".1" transform="translate(-319 -146)"><use fill="#8187ff" xlink:href="#kz1ml"/></g><g opacity=".1" transform="translate(-319 -146)"><use fill="#484db2" xlink:href="#kz1mm"/></g><g opacity=".1" transform="translate(-319 -146)"><use fill="#8187ff" xlink:href="#kz1mn"/></g><g opacity=".1" transform="translate(-319 -146)"><use fill="url(#kz1mp)" xlink:href="#kz1mo"/></g><g opacity=".1" transform="translate(-319 -146)"><use fill="url(#kz1mr)" xlink:href="#kz1mq"/></g><g opacity=".1" transform="translate(-319 -146)"><use fill="url(#kz1mt)" xlink:href="#kz1ms"/></g><g opacity=".1" transform="translate(-319 -146)"><use fill="url(#kz1mv)" xlink:href="#kz1mu"/></g></g></svg>