<?xml version="1.0" encoding="utf-8"?>
<!-- Generator: Adobe Illustrator 22.1.0, SVG Export Plug-In . SVG Version: 6.00 Build 0)  -->
<svg version="1.1" id="Layer_1" xmlns="http://www.w3.org/2000/svg" xmlns:xlink="http://www.w3.org/1999/xlink" x="0px" y="0px"
	 viewBox="0 0 175 74" style="enable-background:new 0 0 175 74;" xml:space="preserve">
<style type="text/css">
	.st0{fill:#B7BAF8;}
	.st1{fill:#484DB2;}
	.st2{fill:url(#SVGID_1_);}
	.st3{fill:url(#SVGID_2_);}
	.st4{fill:url(#SVGID_3_);}
	.st5{fill:url(#SVGID_4_);}
	.st6{fill:#8187FF;}
	.st7{fill:url(#SVGID_5_);}
	.st8{fill:url(#SVGID_6_);}
	.st9{fill:url(#SVGID_7_);}
	.st10{fill:url(#SVGID_8_);}
</style>
<title>Artboard 5</title>
<path d="M15.1,55.5c-1.3-0.1-2.6,0.5-3.6,1.4c-0.9,1.1-1.4,2.6-1.3,4c-0.1,1.4,0.3,2.9,1.2,4c0.9,1,2.2,1.5,3.5,1.4
	c0.9,0,1.9-0.1,2.8-0.4v0.7c-1,0.3-2,0.4-3,0.4c-1.5,0.1-3-0.5-4-1.6c-1-1.3-1.6-2.9-1.5-4.6c0-1.1,0.2-2.2,0.7-3.2
	c0.4-0.9,1.1-1.7,2-2.2c0.9-0.5,1.9-0.8,3-0.8c1.1,0,2.2,0.2,3.2,0.7l-0.3,0.8C17,55.7,16,55.5,15.1,55.5z"/>
<path d="M22.5,61.7v5.2h-0.8v-12h2.8c1.2-0.1,2.3,0.2,3.3,0.8c0.7,0.6,1.1,1.5,1.1,2.5c0,0.7-0.2,1.4-0.6,2c-0.5,0.6-1.2,1-1.9,1.2
	l3.2,5.5h-1l-3.1-5.2L22.5,61.7z M22.5,60.9h2.3c0.8,0.1,1.7-0.2,2.3-0.7c0.6-0.5,0.9-1.2,0.8-2c0.1-0.8-0.2-1.5-0.8-2
	c-0.8-0.5-1.7-0.7-2.7-0.6h-2L22.5,60.9z"/>
<path d="M35.6,61.5l3.5-6.6H40l-4,7.4v4.6h-0.9v-4.6l-4-7.4h1L35.6,61.5z"/>
<path d="M50.2,58.3c0.1,1-0.4,2-1.2,2.7c-1,0.7-2.2,1-3.3,0.9h-1.9v5h-0.8v-12h2.9C48.7,54.9,50.2,56,50.2,58.3z M43.8,61.2h1.6
	c1,0.1,2-0.2,2.9-0.7c0.6-0.5,1-1.3,0.9-2.2c0.1-0.8-0.3-1.6-0.9-2.1c-0.8-0.5-1.7-0.7-2.6-0.7h-2L43.8,61.2z"/>
<path d="M57.1,66.9h-0.8V55.7h-3.9v-0.8H61v0.8h-3.9L57.1,66.9z"/>
<path d="M74.1,60.9c0.1,1.6-0.4,3.2-1.4,4.5c-2.1,2.2-5.6,2.2-7.7,0.1c0,0-0.1-0.1-0.1-0.1c-1-1.3-1.5-2.9-1.4-4.5
	c-0.1-1.6,0.4-3.2,1.4-4.5c1-1.1,2.4-1.7,3.9-1.6c1.5-0.1,2.9,0.5,3.9,1.7C73.7,57.7,74.2,59.3,74.1,60.9z M64.3,60.9
	c-0.1,1.4,0.3,2.8,1.2,4c0.8,1,2,1.5,3.3,1.4c1.3,0.1,2.5-0.4,3.3-1.4c1.5-2.4,1.5-5.6,0-8c-0.8-1-2-1.5-3.3-1.4
	c-1.3-0.1-2.5,0.4-3.3,1.4C64.6,58,64.2,59.5,64.3,60.9z"/>
<path d="M87.6,66.9H87l-2.6-9.2c-0.2-0.8-0.4-1.4-0.5-1.9c-0.1,0.5-0.2,1-0.4,1.6s-1,3.8-2.6,9.5h-0.7l-3.3-12h0.9l2.1,7.7
	c0.1,0.3,0.2,0.6,0.2,0.9s0.1,0.5,0.2,0.8s0.1,0.4,0.2,0.7s0.1,0.4,0.1,0.7c0.1-0.7,0.4-1.9,0.8-3.4l2.1-7.3h0.9l2.4,8.3
	c0.3,1,0.5,1.7,0.6,2.3c0.1-0.4,0.2-0.8,0.3-1.3s0.9-3.6,2.5-9.4H91L87.6,66.9z"/>
<path d="M100.9,66.9h-6.6v-12h6.6v0.8h-5.7v4.5h5.4V61h-5.4v5.1h5.7V66.9z"/>
<path d="M113.9,60.8c0.1,1.7-0.4,3.3-1.6,4.6c-1.3,1.1-3,1.7-4.6,1.6h-2.9v-12h3.2c2.9-0.4,5.5,1.7,5.9,4.6
	C113.9,59.9,113.9,60.3,113.9,60.8L113.9,60.8z M113,60.8c0.3-2.5-1.4-4.8-3.9-5.2c-0.4-0.1-0.8-0.1-1.2,0h-2.2v10.5h2
	C111.2,66.1,113,64.4,113,60.8L113,60.8z"/>
<path d="M127,60.8c0.1,1.7-0.5,3.3-1.6,4.6c-1.3,1.1-3,1.7-4.6,1.6h-2.9v-12h3.2c2.9-0.4,5.5,1.7,5.9,4.6
	C127.1,59.9,127.1,60.3,127,60.8L127,60.8z M126.1,60.8c0.3-2.5-1.4-4.8-3.9-5.2c-0.4-0.1-0.8-0.1-1.2,0h-2.2v10.5h2
	C124.3,66.1,126.1,64.4,126.1,60.8L126.1,60.8z"/>
<path d="M131,66.9v-12h0.8v12H131z"/>
<path d="M145.1,66.9h-0.9l-7.1-10.7h-0.1c0.1,1.3,0.1,2.2,0.1,2.9v7.8h-0.8v-12h0.8l7.1,10.6l0,0c0-1-0.1-1.9-0.1-2.8v-7.8h0.8
	L145.1,66.9z"/>
<path d="M154.5,60.8h4.4v5.5c-1.2,0.5-2.6,0.8-3.9,0.7c-1.6,0.1-3.2-0.5-4.4-1.6c-1.1-1.3-1.6-2.9-1.5-4.5c0-1.1,0.2-2.2,0.8-3.2
	c0.5-0.9,1.2-1.7,2.1-2.2c1-0.5,2.1-0.8,3.2-0.8c1.2,0,2.4,0.2,3.5,0.7l-0.3,0.8c-1-0.5-2.1-0.7-3.2-0.7c-1.4-0.1-2.8,0.5-3.8,1.5
	c-1,1.1-1.5,2.5-1.4,4c-0.1,1.5,0.4,2.9,1.3,4.1c1,1,2.5,1.5,3.9,1.4c1,0,1.9-0.1,2.8-0.5v-4.3h-3.6L154.5,60.8z"/>
<path d="M169.8,63.8c0,0.9-0.4,1.8-1.1,2.4c-0.8,0.6-1.9,0.9-2.9,0.9c-1.1,0.1-2.3-0.1-3.4-0.5v-0.8c1.1,0.4,2.2,0.6,3.3,0.6
	c0.8,0,1.7-0.2,2.4-0.7c0.6-0.4,0.9-1.1,0.9-1.8c0-0.4-0.1-0.8-0.3-1.1c-0.2-0.3-0.6-0.6-0.9-0.8c-0.6-0.3-1.2-0.6-1.9-0.8
	c-0.9-0.3-1.8-0.7-2.5-1.4c-1.1-1.2-0.9-3.1,0.3-4.1c0,0,0,0,0,0c0.8-0.6,1.7-0.9,2.7-0.8c1.1,0,2.2,0.2,3.2,0.6l-0.3,0.7
	c-0.9-0.4-1.9-0.6-2.9-0.6c-0.8,0-1.5,0.2-2.1,0.6c-0.5,0.4-0.8,1-0.8,1.7c0,0.4,0.1,0.8,0.2,1.1c0.2,0.3,0.5,0.6,0.8,0.8
	c0.6,0.3,1.2,0.6,1.9,0.8c0.7,0.2,1.4,0.5,2.1,0.9c0.4,0.2,0.8,0.6,1,1C169.7,62.8,169.8,63.3,169.8,63.8z"/>
<polygon class="st0" points="78.5,26.4 90,42.5 90,33.1 "/>
<polygon class="st1" points="90,33.1 90,42.5 101.4,26.4 "/>
<linearGradient id="SVGID_1_" gradientUnits="userSpaceOnUse" x1="106.4547" y1="89.9029" x2="98.0447" y2="103.6329" gradientTransform="matrix(1 0 0 -1 0 108.7244)">
	<stop  offset="0" style="stop-color:#B7BAF8"/>
	<stop  offset="0.43" style="stop-color:#A2A6FB"/>
	<stop  offset="1" style="stop-color:#8187FF"/>
</linearGradient>
<polygon class="st2" points="98.8,13.4 105.4,24.8 114.9,24.9 "/>
<linearGradient id="SVGID_2_" gradientUnits="userSpaceOnUse" x1="106.7125" y1="71.54" x2="106.8025" y2="84.04" gradientTransform="matrix(1 0 0 -1 0 108.7244)">
	<stop  offset="0" style="stop-color:#8187FF"/>
	<stop  offset="0.47" style="stop-color:#8086FD"/>
	<stop  offset="0.64" style="stop-color:#7B80F6"/>
	<stop  offset="0.77" style="stop-color:#7278EB"/>
	<stop  offset="0.86" style="stop-color:#656BDA"/>
	<stop  offset="0.95" style="stop-color:#555BC4"/>
	<stop  offset="1" style="stop-color:#484DB2"/>
</linearGradient>
<polygon class="st3" points="114.9,24.9 105.4,24.8 98.7,36.3 "/>
<linearGradient id="SVGID_3_" gradientUnits="userSpaceOnUse" x1="74.7183" y1="87.6722" x2="87.3083" y2="97.6922" gradientTransform="matrix(1 0 0 -1 0 108.7244)">
	<stop  offset="0" style="stop-color:#B7BAF8"/>
	<stop  offset="0.43" style="stop-color:#A2A6FB"/>
	<stop  offset="1" style="stop-color:#8187FF"/>
</linearGradient>
<polygon class="st4" points="81.4,13.4 65.3,24.8 74.7,24.8 "/>
<linearGradient id="SVGID_4_" gradientUnits="userSpaceOnUse" x1="73.3359" y1="67.83" x2="73.4359" y2="84.01" gradientTransform="matrix(1 0 0 -1 0 108.7244)">
	<stop  offset="0" style="stop-color:#8187FF"/>
	<stop  offset="0.47" style="stop-color:#8086FD"/>
	<stop  offset="0.64" style="stop-color:#7B80F6"/>
	<stop  offset="0.77" style="stop-color:#7278EB"/>
	<stop  offset="0.86" style="stop-color:#656BDA"/>
	<stop  offset="0.95" style="stop-color:#555BC4"/>
	<stop  offset="1" style="stop-color:#484DB2"/>
</linearGradient>
<polygon class="st5" points="74.7,24.8 65.3,24.8 81.5,36.2 "/>
<polygon class="st0" points="90,5.2 78.5,24.3 90,19.1 "/>
<polygon class="st6" points="101.5,24.3 90,5.2 90,19.1 "/>
<polygon class="st1" points="90,19.1 90,31 101.5,24.3 "/>
<polygon class="st6" points="78.5,24.3 90,31 90,19.1 "/>
<linearGradient id="SVGID_5_" gradientUnits="userSpaceOnUse" x1="104.6511" y1="53.4703" x2="100.8411" y2="68.7803" gradientTransform="matrix(1 0 0 -1 0 108.7244)">
	<stop  offset="0" style="stop-color:#8187FF"/>
	<stop  offset="0.47" style="stop-color:#8086FD"/>
	<stop  offset="0.64" style="stop-color:#7B80F6"/>
	<stop  offset="0.77" style="stop-color:#7278EB"/>
	<stop  offset="0.86" style="stop-color:#656BDA"/>
	<stop  offset="0.95" style="stop-color:#555BC4"/>
	<stop  offset="1" style="stop-color:#484DB2"/>
</linearGradient>
<polygon class="st7" points="105.8,44.4 109,38.2 93.2,43.6 "/>
<linearGradient id="SVGID_6_" gradientUnits="userSpaceOnUse" x1="102.7602" y1="68.8897" x2="118.6702" y2="79.2397" gradientTransform="matrix(1 0 0 -1 0 108.7244)">
	<stop  offset="0" style="stop-color:#B7BAF8"/>
	<stop  offset="0.43" style="stop-color:#A2A6FB"/>
	<stop  offset="1" style="stop-color:#8187FF"/>
</linearGradient>
<polygon class="st8" points="93.2,43.6 109,38.2 112.2,32.1 "/>
<linearGradient id="SVGID_7_" gradientUnits="userSpaceOnUse" x1="74.1698" y1="53.9801" x2="79.3398" y2="68.8801" gradientTransform="matrix(1 0 0 -1 0 108.7244)">
	<stop  offset="0" style="stop-color:#8187FF"/>
	<stop  offset="0.47" style="stop-color:#8086FD"/>
	<stop  offset="0.64" style="stop-color:#7B80F6"/>
	<stop  offset="0.77" style="stop-color:#7278EB"/>
	<stop  offset="0.86" style="stop-color:#656BDA"/>
	<stop  offset="0.95" style="stop-color:#555BC4"/>
	<stop  offset="1" style="stop-color:#484DB2"/>
</linearGradient>
<polygon class="st9" points="86.9,43.6 71.1,38.2 74.3,44.4 "/>
<linearGradient id="SVGID_8_" gradientUnits="userSpaceOnUse" x1="76.537" y1="69.3654" x2="60.577" y2="79.6554" gradientTransform="matrix(1 0 0 -1 0 108.7244)">
	<stop  offset="0" style="stop-color:#B7BAF8"/>
	<stop  offset="0.43" style="stop-color:#A2A6FB"/>
	<stop  offset="1" style="stop-color:#8187FF"/>
</linearGradient>
<polygon class="st10" points="67.9,32.1 71.1,38.2 86.9,43.6 "/>
</svg>
