<svg id="Layer_1" data-name="Layer 1" xmlns="http://www.w3.org/2000/svg" xmlns:xlink="http://www.w3.org/1999/xlink" viewBox="0 0 402 329"><defs><style>.cls-1{fill:#fce6e9;}.cls-2{fill:#cb9ca1;}.cls-3{fill:url(#linear-gradient);}.cls-4{fill:url(#linear-gradient-2);}.cls-5{fill:url(#linear-gradient-3);}.cls-6{fill:url(#linear-gradient-4);}.cls-7{fill:#ffcdd2;}.cls-8{fill:url(#linear-gradient-5);}.cls-9{fill:url(#linear-gradient-6);}.cls-10{fill:url(#linear-gradient-7);}.cls-11{fill:url(#linear-gradient-8);}</style><linearGradient id="linear-gradient" x1="325.68" y1="117.67" x2="261.66" y2="13.18" gradientUnits="userSpaceOnUse"><stop offset="0" stop-color="#fce6e9"/><stop offset="0.85" stop-color="#fed1d6"/><stop offset="1" stop-color="#ffcdd2"/></linearGradient><linearGradient id="linear-gradient-2" x1="327.66" y1="257.53" x2="328.31" y2="162.34" gradientUnits="userSpaceOnUse"><stop offset="0" stop-color="#ffcdd2"/><stop offset="0.51" stop-color="#fdcbd0"/><stop offset="0.7" stop-color="#f6c5ca"/><stop offset="0.83" stop-color="#ebbabf"/><stop offset="0.93" stop-color="#daaaaf"/><stop offset="1" stop-color="#cb9ca1"/></linearGradient><linearGradient id="linear-gradient-3" x1="84.04" y1="134.67" x2="179.95" y2="58.39" xlink:href="#linear-gradient"/><linearGradient id="linear-gradient-4" x1="73.51" y1="285.74" x2="74.27" y2="162.53" xlink:href="#linear-gradient-2"/><linearGradient id="linear-gradient-5" x1="311.93" y1="395.11" x2="282.97" y2="278.57" xlink:href="#linear-gradient-2"/><linearGradient id="linear-gradient-6" x1="297.53" y1="277.73" x2="418.76" y2="198.87" xlink:href="#linear-gradient"/><linearGradient id="linear-gradient-7" x1="79.87" y1="391.24" x2="119.2" y2="277.78" xlink:href="#linear-gradient-2"/><linearGradient id="linear-gradient-8" x1="97.87" y1="274.08" x2="-23.67" y2="195.71" xlink:href="#linear-gradient"/></defs><title>Artboard 1</title><polygon class="cls-1" points="113.16 175.43 200.6 298.31 200.6 226.76 113.16 175.43"/><polygon class="cls-2" points="200.6 226.76 200.6 298.31 287.21 175.43 200.6 226.76"/><polygon class="cls-3" points="267.07 76.67 318.07 163.49 389.61 163.77 267.07 76.67"/><polygon class="cls-4" points="389.61 163.77 318.07 163.49 266.39 250.72 389.61 163.77"/><polygon class="cls-5" points="134.93 76.26 12.39 163.35 83.93 163.07 134.93 76.26"/><polygon class="cls-6" points="83.93 163.07 12.39 163.35 135.6 250.31 83.93 163.07"/><polygon class="cls-1" points="200.49 14.11 113.06 159.03 200.49 120.03 200.49 14.11"/><polygon class="cls-7" points="287.93 159.03 200.49 14.11 200.49 120.03 287.93 159.03"/><polygon class="cls-2" points="200.49 120.03 200.49 210.69 287.93 159.03 200.49 120.03"/><polygon class="cls-7" points="113.06 159.03 200.49 210.69 200.49 120.03 113.06 159.03"/><polygon class="cls-8" points="320.32 312.44 344.86 265.5 224.77 306.5 320.32 312.44"/><polygon class="cls-9" points="224.77 306.5 344.86 265.5 369.39 218.57 224.77 306.5"/><polygon class="cls-10" points="176.39 306.5 56.3 265.5 80.84 312.44 176.39 306.5"/><polygon class="cls-11" points="31.77 218.57 56.3 265.5 176.39 306.5 31.77 218.57"/></svg>
