<svg xmlns="http://www.w3.org/2000/svg" xmlns:xlink="http://www.w3.org/1999/xlink" width="88" height="70" viewBox="0 0 88 70"><defs><path id="aw6oa" d="M670.78 840.38l-8.42-7.16-10.26 4.35 9.47 1.53z"/><path id="aw6ob" d="M660.26 846.78l-8.16-9.21 3.42 8.44z"/><path id="aw6oc" d="M665 847.54l5.78-7.16-10.52 6.4z"/><path id="aw6od" d="M624.22 896.88c-12.37 0-22.37-9.72-22.37-21.74 0-12.02 10-21.74 22.37-21.74 4.2 0 8.15 1.28 11.57 3.07 1.58.77 2.9 2.05 4.21 3.07a21.78 21.78 0 0 1 6.58 15.35c0 5.88-2.63 11.5-6.58 15.34a16.02 16.02 0 0 0 4.2 3.07 26.33 26.33 0 0 0 7.64-18.67c0-7.42-2.9-13.81-7.63-18.67-1.32-1.28-2.63-2.56-4.21-3.32a28 28 0 0 0-15.78-4.86c-15.26.5-27.63 12.53-27.63 27.36 0 14.84 12.37 26.86 27.63 26.86a28 28 0 0 0 15.78-4.86 26.43 26.43 0 0 1-4.2-3.33 25.09 25.09 0 0 1-11.58 3.07z"/><path id="aw6oe" d="M655.78 848.29a28 28 0 0 0-15.78 4.86 26.43 26.43 0 0 1 4.2 3.32 22.33 22.33 0 0 1 11.58-3.07c12.37 0 22.37 9.72 22.37 21.74 0 12.02-10 21.74-22.37 21.74-4.2 0-8.15-1.28-11.57-3.07a58.34 58.34 0 0 1-4.21-3.07 21.78 21.78 0 0 1-6.58-15.34c0-6.14 2.63-11.51 6.58-15.35a16.02 16.02 0 0 0-4.2-3.07 26.33 26.33 0 0 0-7.64 18.67c0 7.42 2.9 13.81 7.63 18.67 1.32 1.28 2.63 2.56 4.21 3.33a28 28 0 0 0 15.78 4.86c15.26 0 27.63-12.02 27.63-26.86 0-14.83-12.37-27.36-27.63-27.36z"/></defs><g><g transform="translate(-596 -833)"><g><use fill="#8187ff" xlink:href="#aw6oa"/></g><g><use fill="#8187ff" xlink:href="#aw6ob"/></g><g><use fill="#8187ff" xlink:href="#aw6oc"/></g><g><use fill="#8187ff" xlink:href="#aw6od"/></g><g><use fill="#8187ff" xlink:href="#aw6oe"/></g></g></g></svg>