<?xml version="1.0" encoding="utf-8"?>
<!-- Generator: Adobe Illustrator 22.1.0, SVG Export Plug-In . SVG Version: 6.00 Build 0)  -->
<svg version="1.1" id="Layer_1" xmlns="http://www.w3.org/2000/svg" xmlns:xlink="http://www.w3.org/1999/xlink" x="0px" y="0px"
	 viewBox="0 0 655.5 459" style="enable-background:new 0 0 655.5 459;" xml:space="preserve">
<style type="text/css">
	.st0{fill:#B7BAF8;}
	.st1{fill:#484DB2;}
	.st2{fill:url(#SVGID_1_);}
	.st3{fill:url(#SVGID_2_);}
	.st4{fill:url(#SVGID_3_);}
	.st5{fill:url(#SVGID_4_);}
	.st6{fill:#8187FF;}
	.st7{fill:url(#SVGID_5_);}
	.st8{fill:url(#SVGID_6_);}
	.st9{fill:url(#SVGID_7_);}
	.st10{fill:url(#SVGID_8_);}
	.st11{fill:#FFFFFF;stroke:#FFFFFF;stroke-width:0.75;stroke-miterlimit:10;}
	.st12{fill:none;stroke:#FFFFFF;stroke-width:0.75;stroke-miterlimit:10;}
	.st13{fill:none;stroke:#FFFFFF;stroke-width:0.75;stroke-linejoin:round;}
	.st14{opacity:0.92;fill:none;stroke:#FFFFFF;stroke-width:0.75;stroke-linejoin:round;enable-background:new    ;}
	.st15{opacity:0.92;}
</style>
<title>Artboard 4</title>
<path d="M253.4,147.5c-1.3-0.1-2.6,0.5-3.5,1.4c-0.9,1.1-1.4,2.5-1.3,4c-0.1,1.4,0.3,2.9,1.2,4c0.9,1,2.2,1.5,3.5,1.4
	c0.9,0,1.9-0.1,2.8-0.4v0.7c-1,0.3-2,0.5-3,0.4c-1.5,0.1-3-0.5-4-1.6c-1-1.3-1.6-2.9-1.5-4.6c0-1.1,0.2-2.2,0.7-3.2
	c0.4-0.9,1.1-1.6,2-2.1c0.9-0.5,2-0.8,3-0.8c1.1,0,2.2,0.2,3.1,0.7l-0.3,0.8C255.3,147.8,254.3,147.6,253.4,147.5z"/>
<path d="M260.8,153.7v5.2H260v-12h2.9c1.2-0.1,2.3,0.2,3.3,0.8c0.7,0.6,1.1,1.5,1.1,2.5c0,0.7-0.2,1.4-0.6,2c-0.5,0.6-1.2,1-1.9,1.2
	l3.2,5.5h-1l-3.1-5.2L260.8,153.7z M260.8,153h2.3c0.8,0.1,1.7-0.2,2.4-0.7c0.6-0.5,0.9-1.2,0.8-2c0.1-0.8-0.2-1.5-0.8-2
	c-0.8-0.5-1.7-0.7-2.7-0.6h-2L260.8,153z"/>
<path d="M273.9,153.5l3.5-6.6h0.9l-4,7.4v4.6h-0.9v-4.6l-4-7.4h1L273.9,153.5z"/>
<path d="M288.5,150.4c0.1,1-0.4,2-1.2,2.7c-1,0.7-2.2,1-3.4,0.9h-1.8v5h-0.8v-12h2.9C287,147,288.5,148.1,288.5,150.4z M282.1,153.3
	h1.6c1,0.1,2-0.1,2.9-0.7c0.6-0.5,1-1.3,0.9-2.2c0.1-0.8-0.3-1.5-0.9-2c-0.8-0.5-1.7-0.7-2.6-0.7h-2L282.1,153.3z"/>
<path d="M295.4,159h-0.9v-11.2h-3.9V147h8.6v0.8h-3.9V159z"/>
<path d="M312.4,152.9c0.1,1.6-0.4,3.2-1.4,4.5c-2.1,2.2-5.6,2.2-7.8,0.1c0,0-0.1-0.1-0.1-0.1c-1-1.3-1.5-2.9-1.4-4.5
	c-0.1-1.6,0.4-3.2,1.4-4.5c2.1-2.2,5.6-2.2,7.8-0.1c0,0,0,0,0.1,0.1C312,149.7,312.5,151.3,312.4,152.9z M302.6,152.9
	c-0.1,1.4,0.3,2.8,1.1,4c1.8,1.8,4.7,1.9,6.5,0.1c0,0,0.1-0.1,0.1-0.1c0.8-1.2,1.2-2.6,1.1-4c0.1-1.4-0.3-2.8-1.1-4
	c-1.8-1.8-4.7-1.9-6.5-0.1c0,0,0,0-0.1,0.1C302.9,150.1,302.5,151.5,302.6,152.9L302.6,152.9z"/>
<path d="M326,159h-0.7l-2.6-9.3c-0.2-0.8-0.4-1.4-0.5-1.9c-0.1,0.5-0.2,1-0.4,1.6s-1,3.8-2.6,9.5h-0.7l-3.3-12h0.9l2.1,7.7
	c0.1,0.3,0.2,0.6,0.2,0.9l0.2,0.7c0,0.2,0.1,0.5,0.1,0.7s0.1,0.4,0.1,0.6c0.1-0.8,0.4-1.9,0.8-3.4l2-7.3h0.9l2.4,8.4
	c0.3,1,0.5,1.7,0.6,2.3c0.1-0.4,0.2-0.8,0.3-1.2s1-3.6,2.5-9.4h0.9L326,159z"/>
<path d="M339.2,159h-6.5v-12h6.5v0.8h-5.7v4.5h5.4v0.8h-5.4v5.1h5.7V159z"/>
<path d="M352.2,152.8c0.1,1.7-0.4,3.3-1.6,4.6c-1.3,1.1-3,1.7-4.6,1.5h-2.9v-12h3.3c1.6-0.1,3.2,0.4,4.4,1.5
	C351.8,149.7,352.3,151.2,352.2,152.8z M351.3,152.8c0.3-2.5-1.4-4.8-3.9-5.2c-0.4-0.1-0.8-0.1-1.2,0h-2.2v10.5h2
	C349.5,158.2,351.3,156.4,351.3,152.8L351.3,152.8z"/>
<path d="M365.3,152.8c0.1,1.7-0.4,3.3-1.6,4.6c-1.3,1.1-3,1.7-4.7,1.5h-2.9v-12h3.2c1.6-0.1,3.2,0.4,4.4,1.5
	C364.8,149.7,365.4,151.2,365.3,152.8z M364.4,152.8c0.3-2.5-1.4-4.8-3.9-5.2c-0.4-0.1-0.8-0.1-1.2,0H357v10.5h2
	C362.6,158.2,364.4,156.4,364.4,152.8L364.4,152.8z"/>
<path d="M369.3,159v-12h0.8v12H369.3z"/>
<path d="M383.5,159h-0.8l-7.1-10.6h-0.1c0.1,1.3,0.1,2.2,0.1,2.9v7.8h-0.8v-12h0.8l7.1,10.7h0c0-1-0.1-1.9-0.1-2.8V147h0.8V159z"/>
<path d="M392.8,152.9h4.4v5.5c-1.2,0.5-2.6,0.8-3.9,0.7c-1.6,0.1-3.2-0.5-4.4-1.6c-1.1-1.3-1.6-2.9-1.5-4.5c0-1.1,0.2-2.2,0.8-3.2
	c0.5-0.9,1.2-1.7,2.2-2.2c1-0.5,2.1-0.8,3.2-0.8c1.2,0,2.4,0.2,3.5,0.7l-0.3,0.8c-1-0.5-2.1-0.7-3.2-0.7c-1.4-0.1-2.8,0.5-3.8,1.5
	c-1,1.1-1.5,2.5-1.4,4c-0.1,1.5,0.4,2.9,1.3,4.1c1,1,2.5,1.5,3.9,1.4c1,0,1.9-0.1,2.8-0.5v-4.2h-3.6L392.8,152.9z"/>
<path d="M408.1,155.9c0,0.9-0.4,1.8-1.1,2.4c-0.8,0.6-1.9,0.9-2.9,0.9c-1.1,0-2.3-0.1-3.4-0.5v-0.8c1.1,0.4,2.2,0.6,3.3,0.5
	c0.8,0,1.7-0.2,2.3-0.7c0.6-0.4,0.9-1.1,0.9-1.8c0-0.4-0.1-0.8-0.3-1.1c-0.2-0.3-0.6-0.6-0.9-0.8c-0.6-0.3-1.2-0.6-1.9-0.8
	c-0.9-0.3-1.8-0.7-2.5-1.4c-1.1-1.2-0.9-3.1,0.3-4.1c0,0,0,0,0,0c0.8-0.6,1.7-0.9,2.7-0.9c1.1,0,2.2,0.2,3.2,0.6l-0.3,0.7
	c-0.9-0.4-1.9-0.6-2.8-0.6c-0.8,0-1.5,0.2-2.1,0.6c-0.5,0.4-0.8,1-0.8,1.7c0,0.4,0.1,0.8,0.2,1.1c0.2,0.3,0.5,0.6,0.8,0.8
	c0.6,0.3,1.2,0.6,1.9,0.8c0.7,0.2,1.4,0.6,2.1,0.9c0.4,0.2,0.8,0.6,1,1C408,154.9,408.1,155.4,408.1,155.9z"/>
<polygon class="st0" points="316.9,118.5 328.3,134.6 328.3,125.2 "/>
<polygon class="st1" points="328.3,125.2 328.3,134.6 339.7,118.5 "/>
<linearGradient id="SVGID_1_" gradientUnits="userSpaceOnUse" x1="344.7636" y1="273.6403" x2="336.3536" y2="287.3603" gradientTransform="matrix(1 0 0 -1 0 384.5243)">
	<stop  offset="0" style="stop-color:#B7BAF8"/>
	<stop  offset="0.43" style="stop-color:#A2A6FB"/>
	<stop  offset="1" style="stop-color:#8187FF"/>
</linearGradient>
<polygon class="st2" points="337.1,105.5 343.8,116.9 353.2,116.9 "/>
<linearGradient id="SVGID_2_" gradientUnits="userSpaceOnUse" x1="345.0255" y1="255.2699" x2="345.1155" y2="267.7699" gradientTransform="matrix(1 0 0 -1 0 384.5243)">
	<stop  offset="0" style="stop-color:#8187FF"/>
	<stop  offset="0.47" style="stop-color:#8086FD"/>
	<stop  offset="0.64" style="stop-color:#7B80F6"/>
	<stop  offset="0.77" style="stop-color:#7278EB"/>
	<stop  offset="0.86" style="stop-color:#656BDA"/>
	<stop  offset="0.95" style="stop-color:#555BC4"/>
	<stop  offset="1" style="stop-color:#484DB2"/>
</linearGradient>
<polygon class="st3" points="353.2,116.9 343.8,116.9 337,128.4 "/>
<linearGradient id="SVGID_3_" gradientUnits="userSpaceOnUse" x1="313.0357" y1="271.4068" x2="325.6257" y2="281.4168" gradientTransform="matrix(1 0 0 -1 0 384.5243)">
	<stop  offset="0" style="stop-color:#B7BAF8"/>
	<stop  offset="0.43" style="stop-color:#A2A6FB"/>
	<stop  offset="1" style="stop-color:#8187FF"/>
</linearGradient>
<polygon class="st4" points="319.7,105.4 303.6,116.9 313,116.8 "/>
<linearGradient id="SVGID_4_" gradientUnits="userSpaceOnUse" x1="311.6491" y1="251.57" x2="311.7491" y2="267.75" gradientTransform="matrix(1 0 0 -1 0 384.5243)">
	<stop  offset="0" style="stop-color:#8187FF"/>
	<stop  offset="0.47" style="stop-color:#8086FD"/>
	<stop  offset="0.64" style="stop-color:#7B80F6"/>
	<stop  offset="0.77" style="stop-color:#7278EB"/>
	<stop  offset="0.86" style="stop-color:#656BDA"/>
	<stop  offset="0.95" style="stop-color:#555BC4"/>
	<stop  offset="1" style="stop-color:#484DB2"/>
</linearGradient>
<polygon class="st5" points="313,116.8 303.6,116.9 319.8,128.3 "/>
<polygon class="st0" points="328.3,97.3 316.8,116.3 328.3,111.2 "/>
<polygon class="st6" points="339.8,116.3 328.3,97.3 328.3,111.2 "/>
<polygon class="st1" points="328.3,111.2 328.3,123.1 339.8,116.3 "/>
<polygon class="st6" points="316.8,116.3 328.3,123.1 328.3,111.2 "/>
<linearGradient id="SVGID_5_" gradientUnits="userSpaceOnUse" x1="342.9641" y1="237.2102" x2="339.1541" y2="252.5102" gradientTransform="matrix(1 0 0 -1 0 384.5243)">
	<stop  offset="0" style="stop-color:#8187FF"/>
	<stop  offset="0.47" style="stop-color:#8086FD"/>
	<stop  offset="0.64" style="stop-color:#7B80F6"/>
	<stop  offset="0.77" style="stop-color:#7278EB"/>
	<stop  offset="0.86" style="stop-color:#656BDA"/>
	<stop  offset="0.95" style="stop-color:#555BC4"/>
	<stop  offset="1" style="stop-color:#484DB2"/>
</linearGradient>
<polygon class="st7" points="344.1,136.5 347.3,130.3 331.5,135.7 "/>
<linearGradient id="SVGID_6_" gradientUnits="userSpaceOnUse" x1="341.0728" y1="252.6204" x2="356.9828" y2="262.9804" gradientTransform="matrix(1 0 0 -1 0 384.5243)">
	<stop  offset="0" style="stop-color:#B7BAF8"/>
	<stop  offset="0.43" style="stop-color:#A2A6FB"/>
	<stop  offset="1" style="stop-color:#8187FF"/>
</linearGradient>
<polygon class="st8" points="331.5,135.7 347.3,130.3 350.5,124.1 "/>
<linearGradient id="SVGID_7_" gradientUnits="userSpaceOnUse" x1="312.4829" y1="237.71" x2="317.6529" y2="252.61" gradientTransform="matrix(1 0 0 -1 0 384.5243)">
	<stop  offset="0" style="stop-color:#8187FF"/>
	<stop  offset="0.47" style="stop-color:#8086FD"/>
	<stop  offset="0.64" style="stop-color:#7B80F6"/>
	<stop  offset="0.77" style="stop-color:#7278EB"/>
	<stop  offset="0.86" style="stop-color:#656BDA"/>
	<stop  offset="0.95" style="stop-color:#555BC4"/>
	<stop  offset="1" style="stop-color:#484DB2"/>
</linearGradient>
<polygon class="st9" points="325.2,135.7 309.4,130.3 312.6,136.5 "/>
<linearGradient id="SVGID_8_" gradientUnits="userSpaceOnUse" x1="314.8502" y1="253.0954" x2="298.8902" y2="263.3854" gradientTransform="matrix(1 0 0 -1 0 384.5243)">
	<stop  offset="0" style="stop-color:#B7BAF8"/>
	<stop  offset="0.43" style="stop-color:#A2A6FB"/>
	<stop  offset="1" style="stop-color:#8187FF"/>
</linearGradient>
<polygon class="st10" points="306.2,124.1 309.4,130.3 325.2,135.7 "/>
<circle class="st11" cx="327.9" cy="443.8" r="0.9"/>
<circle class="st11" cx="429.5" cy="369.5" r="0.9"/>
<circle class="st12" cx="587.8" cy="203" r="0.9"/>
<circle class="st11" cx="582.6" cy="129.1" r="0.9"/>
<circle class="st11" cx="577.4" cy="78.8" r="0.9"/>
<circle class="st11" cx="129.6" cy="26.7" r="0.9"/>
<circle class="st11" cx="226" cy="369.5" r="0.9"/>
<circle class="st11" cx="68.8" cy="204.7" r="0.9"/>
<circle class="st11" cx="73" cy="129.9" r="0.9"/>
<circle class="st11" cx="78.5" cy="78.6" r="0.9"/>
<circle class="st11" cx="526.2" cy="26.6" r="0.9"/>
<polyline class="st13" points="469.6,132.5 577.4,78.6 582.6,129.9 587.8,204.7 562.6,256.9 "/>
<circle class="st11" cx="327.9" cy="271.7" r="0.9"/>
<circle class="st11" cx="327.9" cy="89.1" r="0.9"/>
<polygon class="st14" points="327.9,89.1 188.8,24.7 185.7,132.5 "/>
<polygon class="st14" points="327.9,443.8 226.1,369.5 293.1,332.5 "/>
<g class="st15">
	<polyline class="st13" points="152.2,332.9 189.2,351.2 226.1,369.5 220.1,270.8 152.2,332.9 	"/>
	<path class="st11" d="M152.3,331.4c-0.4,0.4-0.5,1-0.1,1.5c0,0,0,0,0,0c0.4,0.4,1.1,0.5,1.5,0.1s0.5-1.1,0.1-1.5
		C153.4,331,152.7,331,152.3,331.4z"/>
</g>
<g class="st15">
	<polyline class="st13" points="93.1,256.9 152.2,332.9 147.5,235.1 93.1,256.9 	"/>
	<path class="st11" d="M93.7,255.4c-0.6,0.2-0.8,0.8-0.6,1.4c0.2,0.6,0.8,0.8,1.4,0.6l0,0c0.6-0.2,0.8-0.8,0.6-1.4
		C94.9,255.5,94.3,255.2,93.7,255.4L93.7,255.4z"/>
</g>
<g class="st15">
	<polyline class="st13" points="327,271.7 220.1,270.8 282.7,216 200.1,190.8 78.3,78.6 129.6,26.5 248.8,52.6 185.8,132.1 
		200.1,190.8 220.1,270.8 147.5,235.1 73.1,129.1 200.1,190.8 147.5,235.1 67.9,204.7 117.5,151.2 188.2,24.8 	"/>
	<path class="st11" d="M189.2,26.2c0.3-0.5,0.2-1.1-0.3-1.4c0,0-0.1,0-0.1,0l0,0c-0.5-0.3-1.1-0.2-1.5,0.2s-0.2,1.1,0.2,1.5
		c0.1,0.1,0.2,0.1,0.2,0.1c0.5,0.3,1.1,0.2,1.4-0.3C189.2,26.3,189.2,26.2,189.2,26.2L189.2,26.2z"/>
</g>
<polyline class="st13" points="186.1,132.5 78.3,78.6 73.1,129.9 67.9,204.7 93.1,256.9 "/>
<polyline class="st13" points="220.1,270.8 293.1,332.5 327,271.7 282.7,216 "/>
<g class="st15">
	<polyline class="st13" points="185.7,131.7 129.6,26.5 187.9,24.7 274,36 327.9,89.1 	"/>
	<path class="st12" d="M186.6,131.1c0.3,0.5,0.1,1.2-0.4,1.4s-1.2,0.1-1.4-0.4c-0.3-0.5-0.1-1.2,0.4-1.4l0,0
		C185.7,130.4,186.3,130.6,186.6,131.1C186.6,131.1,186.6,131.1,186.6,131.1z"/>
</g>
<polygon class="st14" points="327.9,89.1 467,24.7 470,132.5 "/>
<polygon class="st14" points="327.9,443.8 429.6,369.5 362.6,332.5 "/>
<g class="st15">
	<polyline class="st13" points="503.5,332.9 466.5,351.2 429.6,369.5 435.7,270.8 503.5,332.9 	"/>
	<path class="st11" d="M502,333c0.5,0.4,1.1,0.3,1.5-0.2c0.3-0.4,0.3-1-0.1-1.4c-0.5-0.4-1.1-0.3-1.5,0.2
		C501.6,332,501.6,332.6,502,333z"/>
</g>
<g class="st15">
	<polyline class="st13" points="562.6,256.9 503.5,332.9 508.3,235.1 562.6,256.9 	"/>
	<path class="st11" d="M561.2,257.5c0.5,0.2,1.2,0,1.4-0.6c0.2-0.5,0-1.2-0.6-1.4s-1.2,0-1.4,0.6c0,0,0,0,0,0l0,0
		c-0.2,0.5,0,1.1,0.5,1.3C561.1,257.4,561.2,257.5,561.2,257.5z"/>
</g>
<g class="st15">
	<polyline class="st13" points="328.7,271.7 435.7,270.8 373.1,216 455.7,190.8 577.4,78.6 526.1,26.5 407,52.6 469.9,132.1 
		455.7,190.8 435.7,270.8 508.3,235.1 582.6,129.1 455.7,190.8 508.3,235.1 587.8,204.7 538.3,151.2 467,24.7 	"/>
	<path class="st11" d="M468.4,25.2c-0.2-0.5-0.9-0.8-1.4-0.5c-0.5,0.2-0.8,0.9-0.5,1.4l0,0c0,0.1,0.1,0.1,0.1,0.2
		c0.2,0.5,0.9,0.8,1.4,0.5c0.5-0.2,0.8-0.9,0.5-1.4C468.5,25.3,468.4,25.2,468.4,25.2z"/>
</g>
<polyline class="st13" points="435.7,270.8 362.6,332.5 328.7,271.7 373.1,216 "/>
<g class="st15">
	<polyline class="st13" points="470.1,131.7 526.1,26.5 467.8,24.7 381.8,36 327.9,89.1 	"/>
	<path class="st11" d="M471,132.1c-0.3,0.5-0.9,0.7-1.5,0.4c-0.5-0.3-0.6-0.9-0.3-1.4c0.3-0.5,0.9-0.6,1.4-0.3
		C471.1,131.1,471.2,131.7,471,132.1z"/>
</g>
<line class="st12" x1="293.1" y1="332.5" x2="362.6" y2="332.5"/>
<line class="st12" x1="274" y1="36" x2="248.8" y2="52.6"/>
<line class="st12" x1="381.7" y1="35.9" x2="406.9" y2="52.4"/>
<circle class="st11" cx="381.7" cy="36" r="0.9"/>
<circle class="st11" cx="274" cy="36" r="0.9"/>
<path d="M19.9,196.5l8-15h3.8l-10,18.4v11.6h-3.5V200l-10-18.5H12L19.9,196.5z"/>
<path d="M63.1,196.5c0,4.8-1.2,8.6-3.6,11.3s-5.8,4.1-10.1,4.1c-4.4,0-7.8-1.3-10.2-4c-2.4-2.7-3.6-6.5-3.6-11.4
	c0-4.9,1.2-8.7,3.6-11.4c2.4-2.7,5.8-4,10.3-4c4.3,0,7.7,1.4,10.1,4.1S63.1,191.7,63.1,196.5z M39.2,196.5c0,4.1,0.9,7.1,2.6,9.2
	s4.2,3.1,7.5,3.1c3.3,0,5.8-1,7.5-3.1s2.6-5.2,2.6-9.2s-0.9-7.1-2.5-9.2s-4.2-3.1-7.5-3.1s-5.9,1-7.6,3.1S39.2,192.5,39.2,196.5z"/>
<path d="M93.7,181.5v19.4c0.2,3-1,5.9-3.1,8.1c-2.1,2-4.9,2.9-8.5,2.9s-6.4-1-8.4-3s-3-4.7-3-8.1v-19.3h3.5v19.6
	c-0.1,2.1,0.6,4.2,2.1,5.8c1.4,1.3,3.4,2,6,2c2.1,0.1,4.2-0.6,5.9-2c1.4-1.6,2.2-3.7,2.1-5.8v-19.5H93.7z"/>
<path d="M106.4,199v12.5h-3.5v-30h8.2c3.7,0,6.4,0.7,8.1,2.1c1.8,1.4,2.6,3.5,2.6,6.4c0,4-2,6.7-6,8l8.1,13.5h-4.1l-7.3-12.5
	L106.4,199z M106.4,196h4.8c2.5,0,4.3-0.5,5.4-1.5c1.2-1.1,1.8-2.7,1.7-4.4c0.2-1.6-0.5-3.2-1.8-4.3c-1.2-0.9-3.1-1.3-5.6-1.3h-4.5
	V196z"/>
<path d="M142.3,211.5v-30h3.5v26.8H159v3.2L142.3,211.5z"/>
<path d="M191.4,196.5c0,4.8-1.2,8.6-3.6,11.3s-5.8,4.1-10.1,4.1c-4.4,0-7.8-1.3-10.2-4c-2.4-2.7-3.6-6.5-3.6-11.4
	c0-4.9,1.2-8.7,3.6-11.4c2.4-2.7,5.8-4,10.3-4c4.3,0,7.7,1.4,10.1,4.1S191.4,191.7,191.4,196.5z M167.5,196.5c0,4.1,0.9,7.1,2.6,9.2
	c1.7,2.1,4.2,3.1,7.5,3.1c3.3,0,5.8-1,7.5-3.1s2.5-5.2,2.5-9.2s-0.9-7.1-2.5-9.2s-4.2-3.1-7.5-3.1s-5.9,1-7.6,3.1
	S167.5,192.5,167.5,196.5L167.5,196.5z"/>
<path d="M216.5,181.5h3.8l-10.8,30H206l-10.8-30h3.7l6.9,19.4c0.8,2.1,1.4,4.3,1.9,6.5c0.5-2.2,1.1-4.5,1.9-6.6L216.5,181.5z"/>
<path d="M242.3,211.5h-16.7v-30h16.7v3.1h-13.2v9.7h12.4v3.1h-12.4v11h13.2V211.5z"/>
<path d="M279.3,203.5c0.1,2.4-1,4.7-2.9,6.2c-2.3,1.6-5,2.4-7.8,2.2c-2.8,0.1-5.6-0.3-8.2-1.4v-3.4c1.3,0.5,2.6,1,4,1.2
	c1.4,0.3,2.9,0.4,4.3,0.5c1.8,0.1,3.7-0.3,5.2-1.3c1.2-0.9,1.8-2.2,1.8-3.7c0-0.9-0.2-1.8-0.6-2.6c-0.5-0.8-1.3-1.4-2.1-1.8
	c-1.4-0.8-2.9-1.4-4.5-1.9c-2.3-0.7-4.3-1.9-6-3.5c-1.2-1.5-1.9-3.4-1.8-5.4c-0.1-2.2,0.9-4.2,2.6-5.5c2-1.4,4.4-2.2,6.9-2
	c2.8,0,5.6,0.5,8.2,1.6l-1.1,3c-2.3-1-4.7-1.5-7.2-1.6c-1.5-0.1-3.1,0.3-4.3,1.2c-1,0.8-1.6,2-1.6,3.3c0,0.9,0.2,1.8,0.6,2.5
	c0.5,0.8,1.2,1.4,1.9,1.8c1.3,0.7,2.7,1.4,4.2,1.8c3.1,1.1,5.3,2.3,6.5,3.6C278.7,199.9,279.4,201.7,279.3,203.5z"/>
<path d="M303.4,211.5h-16.7v-30h16.7v3.1h-13.2v9.7h12.4v3.1h-12.4v11h13.2V211.5z"/>
<path d="M324.1,184.2c-3-0.1-5.8,1.1-7.8,3.3c-1.9,2.2-2.9,5.2-2.9,9s0.9,7,2.8,9.1s4.5,3.2,7.9,3.2c2.4-0.1,4.8-0.4,7.2-1.1v3.1
	c-2.5,0.8-5.1,1.2-7.7,1.2c-4.4,0-7.8-1.3-10.2-4s-3.6-6.5-3.6-11.4c-0.1-2.8,0.5-5.6,1.7-8.1c1.1-2.3,2.8-4.1,5-5.4
	c2.4-1.3,5-2,7.7-1.9c2.8-0.1,5.7,0.5,8.2,1.7l-1.5,3C328.8,184.8,326.5,184.2,324.1,184.2z"/>
<path d="M361.7,181.5v19.4c0.2,3-1,5.9-3.1,8.1c-2.1,2-4.9,2.9-8.5,2.9s-6.4-1-8.4-3c-2.1-2.2-3.2-5.1-3-8.1v-19.3h3.5v19.6
	c-0.2,2.1,0.6,4.2,2,5.8c1.3,1.3,3.3,2,6,2c2.1,0.1,4.2-0.6,5.8-2c1.5-1.6,2.2-3.7,2-5.8v-19.5H361.7z"/>
<path d="M374.4,199v12.5h-3.5v-30h8.2c3.7,0,6.4,0.7,8.2,2.1s2.6,3.5,2.6,6.4c0,4-2,6.7-6,8l8.1,13.5h-4.2l-7.2-12.5L374.4,199z
	 M374.4,196h4.8c2.5,0,4.3-0.5,5.4-1.5c1.2-1.1,1.8-2.7,1.7-4.4c0.2-1.6-0.5-3.2-1.8-4.3c-1.2-0.9-3-1.3-5.6-1.3h-4.5V196z"/>
<path d="M414.8,211.5h-16.7v-30h16.7v3.1h-13.2v9.7H414v3.1h-12.4v11h13.2V211.5z"/>
<path d="M446.7,196.2c0,5-1.3,8.7-4,11.4s-6.5,3.9-11.6,3.9h-8.3v-30h9.2c4.7,0,8.3,1.3,10.9,3.9S446.7,191.6,446.7,196.2z
	 M443,196.3c0-3.9-1-6.9-3-8.8s-4.9-3-8.7-3h-5.1v24h4.2c4.2,0,7.3-1,9.4-3.1S442.9,200.4,443,196.3z"/>
<path d="M470.3,211.5h-3.5v-30h16.7v3.1h-13.2v11h12.4v3.1h-12.4V211.5z"/>
<path d="M515.8,196.5c0,4.8-1.2,8.6-3.7,11.3s-5.8,4.1-10.1,4.1c-4.4,0-7.8-1.3-10.2-4s-3.6-6.5-3.6-11.4c0-4.9,1.2-8.7,3.6-11.4
	c2.4-2.7,5.8-4,10.3-4c4.3,0,7.7,1.4,10.1,4.1C514.5,187.9,515.8,191.7,515.8,196.5z M491.9,196.5c0,4.1,0.9,7.1,2.6,9.2
	s4.2,3.1,7.5,3.1c3.3,0,5.8-1,7.5-3.1s2.5-5.2,2.5-9.2s-0.8-7.1-2.5-9.2s-4.2-3.1-7.5-3.1s-5.8,1-7.6,3.1S491.9,192.5,491.9,196.5
	L491.9,196.5z"/>
<path d="M527.2,199v12.5h-3.5v-30h8.2c3.7,0,6.4,0.7,8.2,2.1c1.8,1.4,2.6,3.5,2.6,6.4c0,4-2,6.7-6,8l8.1,13.5h-4.1l-7.3-12.4H527.2z
	 M527.2,196h4.8c2.5,0,4.3-0.5,5.4-1.5c1.2-1.1,1.8-2.7,1.7-4.4c0.2-1.6-0.5-3.2-1.8-4.3c-1.2-0.9-3.1-1.3-5.6-1.3h-4.5L527.2,196z"
	/>
<path d="M567.6,211.5h-16.7v-30h16.7v3.1h-13.2v9.7h12.4v3.1h-12.4v11h13.2L567.6,211.5z"/>
<path d="M592.7,181.5h3.7l-10.8,30h-3.4l-10.8-30h3.7l6.9,19.4c0.8,2.1,1.4,4.3,1.9,6.5c0.5-2.2,1.1-4.5,1.9-6.6L592.7,181.5z"/>
<path d="M618.5,211.5h-16.7v-30h16.7v3.1h-13.2v9.7h12.4v3.1h-12.4v11h13.2V211.5z"/>
<path d="M629.9,199v12.5h-3.5v-30h8.2c3.7,0,6.4,0.7,8.2,2.1c1.8,1.4,2.6,3.5,2.6,6.4c0,4-2,6.7-6,8l8.1,13.5h-4.1l-7.3-12.5
	L629.9,199z M629.9,196h4.8c2.5,0,4.3-0.5,5.4-1.5c1.2-1.1,1.8-2.7,1.7-4.4c0.2-1.6-0.5-3.2-1.8-4.3c-1.2-0.9-3-1.3-5.6-1.3h-4.5
	L629.9,196z"/>
<path d="M135.7,246.9c0,4.8-1.2,8.6-3.6,11.3c-2.4,2.7-5.8,4.1-10.1,4.1c-4.4,0-7.8-1.3-10.2-4c-2.4-2.7-3.6-6.5-3.6-11.4
	c0-4.9,1.2-8.7,3.6-11.4c2.4-2.7,5.8-4,10.2-4c4.3,0,7.7,1.4,10.1,4.1S135.7,242.1,135.7,246.9z M111.8,246.9c0,4.1,0.9,7.1,2.6,9.2
	c1.7,2.1,4.2,3.1,7.5,3.1s5.8-1,7.5-3.1c1.7-2.1,2.5-5.2,2.5-9.3s-0.8-7.1-2.5-9.2s-4.2-3.1-7.5-3.1s-5.9,1-7.6,3.1
	S111.8,242.9,111.8,246.9L111.8,246.9z"/>
<path d="M167.1,261.9h-4l-16.4-25.2h-0.2c0.2,3,0.3,5.7,0.3,8.1v17h-3.2v-30h3.9l16.4,25.1h0.2c0-0.4-0.1-1.6-0.2-3.6
	s-0.1-3.4-0.1-4.3v-17.2h3.3V261.9z"/>
<path d="M198,261.9h-3.5V235H185v-3.1h22.5v3.1H198L198,261.9z"/>
<path d="M236,261.9h-3.5v-14.1h-15.8v14.1h-3.5v-30h3.5v12.7h15.8v-12.7h3.5V261.9z"/>
<path d="M262.2,261.9h-16.7v-30h16.7v3.1H249v9.6h12.4v3.1H249v11h13.2V261.9z"/>
<path d="M282.3,231.9h8.5c4,0,6.9,0.6,8.6,1.8c1.8,1.3,2.8,3.4,2.7,5.6c0.1,1.6-0.5,3.2-1.5,4.4c-1.1,1.2-2.7,2-4.3,2.2v0.2
	c4.5,0.8,6.8,3.2,6.8,7.2c0.1,2.4-0.9,4.7-2.7,6.3c-1.8,1.5-4.3,2.3-7.6,2.3h-10.5V231.9z M285.7,244.7h5.7c2.5,0,4.2-0.4,5.3-1.2
	c1.2-0.9,1.8-2.4,1.6-3.9c0.1-1.5-0.6-2.9-1.8-3.6c-1.2-0.8-3.1-1.1-5.7-1.1h-5.1V244.7z M285.7,247.7v11.2h6.2
	c1.9,0.1,3.8-0.4,5.5-1.4c1.3-1.1,2-2.7,1.8-4.4c0.1-1.6-0.6-3.1-1.9-4.1c-1.7-1-3.7-1.5-5.7-1.3H285.7z"/>
<path d="M310.7,261.9v-30h3.5v26.8h13.2v3.2L310.7,261.9z"/>
<path d="M359.8,246.9c0,4.8-1.2,8.6-3.6,11.3c-2.4,2.7-5.8,4.1-10.1,4.1c-4.4,0-7.8-1.3-10.2-4c-2.4-2.7-3.6-6.5-3.6-11.4
	c0-4.9,1.2-8.7,3.6-11.4s5.8-4,10.2-4c4.3,0,7.7,1.4,10.1,4.1C358.6,238.3,359.8,242.1,359.8,246.9z M335.9,246.9
	c0,4.1,0.9,7.1,2.6,9.2c1.7,2.1,4.2,3.1,7.5,3.1s5.8-1,7.5-3.1c1.7-2.1,2.5-5.2,2.5-9.3s-0.9-7.1-2.5-9.2s-4.2-3.1-7.5-3.1
	s-5.9,1-7.6,3.1S335.9,242.9,335.9,246.9L335.9,246.9z"/>
<path d="M380.6,234.6c-3-0.1-5.8,1.1-7.8,3.3c-1.9,2.2-2.9,5.2-2.9,9s0.9,7,2.8,9.1c1.8,2.1,4.5,3.2,7.9,3.2
	c2.4-0.1,4.8-0.4,7.2-1.1v3.1c-2.5,0.8-5.1,1.2-7.7,1.2c-4.4,0-7.8-1.3-10.2-4c-2.4-2.7-3.6-6.5-3.6-11.4c-0.1-2.8,0.5-5.6,1.7-8.1
	c1.1-2.3,2.8-4.1,5-5.4c2.4-1.3,5-2,7.7-1.9c2.8-0.1,5.7,0.5,8.2,1.7l-1.5,3C385.3,235.2,383,234.6,380.6,234.6z"/>
<path d="M417.2,261.9h-4.1l-10.9-14.5l-3.1,2.8v11.8h-3.5v-30h3.5v14.9l13.6-14.9h4.1l-12.1,13L417.2,261.9z"/>
<path d="M435.4,234.6c-3-0.1-5.8,1.1-7.8,3.3c-1.9,2.2-2.9,5.2-2.9,9s0.9,7,2.8,9.1c1.8,2.1,4.5,3.2,7.9,3.2
	c2.4-0.1,4.8-0.4,7.2-1.1v3.1c-2.5,0.8-5.1,1.2-7.7,1.2c-4.4,0-7.8-1.3-10.2-4c-2.4-2.7-3.6-6.5-3.6-11.4c-0.1-2.8,0.5-5.6,1.7-8.1
	c1.1-2.3,2.8-4.1,5-5.4c2.4-1.3,5-2,7.7-1.9c2.8-0.1,5.7,0.5,8.2,1.7l-1.5,3C440.1,235.2,437.8,234.6,435.4,234.6z"/>
<path d="M473.1,261.9h-3.5v-14.1h-15.8v14.1h-3.5v-30h3.5v12.7h15.8v-12.7h3.5V261.9z"/>
<path d="M501.4,261.9l-3.7-9.5h-12l-3.7,9.5h-3.6l11.9-30.1h2.9l11.8,30.1L501.4,261.9z M496.6,249.2l-3.5-9.3
	c-0.5-1.2-0.9-2.6-1.4-4.3c-0.3,1.5-0.8,2.9-1.3,4.3l-3.5,9.3H496.6z"/>
<path d="M510.4,261.9v-30h3.5v30H510.4z"/>
<path d="M546.8,261.9h-4l-16.4-25.2h-0.2c0.2,3,0.3,5.7,0.3,8.1v17h-3.2v-30h3.9l16.3,25.1h0.2c0-0.4-0.1-1.6-0.2-3.6
	s-0.1-3.4-0.1-4.3v-17.2h3.3L546.8,261.9z"/>
</svg>
