<svg xmlns="http://www.w3.org/2000/svg" xmlns:xlink="http://www.w3.org/1999/xlink" viewBox="0 0 612.54 495.57"><defs><style>.cls-1,.cls-4{fill:#86bdce;}.cls-2{opacity:0.95;}.cls-3,.cls-5,.cls-7{fill:none;}.cls-3,.cls-4,.cls-5,.cls-7{stroke:#86bdce;stroke-width:0.25px;}.cls-3,.cls-5{stroke-linejoin:round;}.cls-4,.cls-7{stroke-miterlimit:10;}.cls-5,.cls-6{opacity:0.92;}.cls-8{opacity:0.8;}.cls-9{fill:#fce6e9;}.cls-10{fill:#cb9ca1;}.cls-11{fill:url(#linear-gradient);}.cls-12{fill:url(#linear-gradient-2);}.cls-13{fill:url(#linear-gradient-3);}.cls-14{fill:url(#linear-gradient-4);}.cls-15{fill:#ffcdd2;}.cls-16{fill:url(#linear-gradient-5);}.cls-17{fill:url(#linear-gradient-6);}.cls-18{fill:url(#linear-gradient-7);}.cls-19{fill:url(#linear-gradient-8);}.cls-20{opacity:0.85;}</style><linearGradient id="linear-gradient" x1="332.93" y1="116.01" x2="323.68" y2="100.91" gradientUnits="userSpaceOnUse"><stop offset="0" stop-color="#fce6e9"/><stop offset="0.85" stop-color="#fed1d6"/><stop offset="1" stop-color="#ffcdd2"/></linearGradient><linearGradient id="linear-gradient-2" x1="333.34" y1="136.57" x2="333.44" y2="122.52" gradientUnits="userSpaceOnUse"><stop offset="0" stop-color="#ffcdd2"/><stop offset="0.51" stop-color="#fdcbd0"/><stop offset="0.7" stop-color="#f6c5ca"/><stop offset="0.83" stop-color="#ebbabf"/><stop offset="0.93" stop-color="#daaaaf"/><stop offset="1" stop-color="#cb9ca1"/></linearGradient><linearGradient id="linear-gradient-3" x1="299.22" y1="118.51" x2="312.95" y2="107.59" xlink:href="#linear-gradient"/><linearGradient id="linear-gradient-4" x1="297.59" y1="140.74" x2="297.7" y2="122.54" xlink:href="#linear-gradient-2"/><linearGradient id="linear-gradient-5" x1="331.33" y1="156.91" x2="327.02" y2="139.58" xlink:href="#linear-gradient-2"/><linearGradient id="linear-gradient-6" x1="329.17" y1="139.57" x2="346.47" y2="128.32" xlink:href="#linear-gradient"/><linearGradient id="linear-gradient-7" x1="298.28" y1="156.18" x2="304.05" y2="139.52" xlink:href="#linear-gradient-2"/><linearGradient id="linear-gradient-8" x1="300.95" y1="139.05" x2="283.61" y2="127.87" xlink:href="#linear-gradient"/></defs><title>Artboard 17</title><g id="Type"><circle class="cls-1" cx="316.25" cy="442.84" r="0.79"/><circle class="cls-1" cx="408.3" cy="375.18" r="0.79"/><circle class="cls-1" cx="551.49" cy="226.48" r="0.79"/><circle class="cls-1" cx="546.77" cy="158.03" r="0.79"/><circle class="cls-1" cx="542.05" cy="112.4" r="0.79"/><circle class="cls-1" cx="495.63" cy="65.2" r="0.79"/><circle class="cls-1" cx="224.2" cy="375.96" r="0.79"/><circle class="cls-1" cx="81.01" cy="226.48" r="0.79"/><circle class="cls-1" cx="85.74" cy="158.03" r="0.79"/><circle class="cls-1" cx="90.46" cy="112.4" r="0.79"/><circle class="cls-1" cx="136.87" cy="65.2" r="0.79"/><g class="cls-2"><polyline class="cls-3" points="444.49 161.18 542.05 112.4 546.77 158.82 551.49 226.48 528.67 273.69"/><circle class="cls-4" cx="316.25" cy="287.06" r="0.79"/><circle class="cls-4" cx="316.25" cy="121.84" r="0.79"/><polygon class="cls-5" points="316.25 121.84 190.37 63.62 187.62 161.18 316.25 121.84"/><polygon class="cls-5" points="316.25 442.84 224.2 375.57 284.78 342.13 316.25 442.84"/><g class="cls-6"><polyline class="cls-3" points="157.33 342.49 190.77 359.05 224.2 375.57 218.7 286.27 157.99 341.89"/><path class="cls-1" d="M157.38,341.16a1,1,0,0,0,0,1.33.94.94,0,1,0,1.38-1.27A1,1,0,0,0,157.38,341.16Z"/></g><g class="cls-6"><polyline class="cls-3" points="103.83 273.69 157.33 342.53 153 254.02 104.66 273.35"/><path class="cls-1" d="M104.35,272.46a1,1,0,0,0-.52,1.23.94.94,0,0,0,1.75-.7A1,1,0,0,0,104.35,272.46Z"/></g><g class="cls-6"><polyline class="cls-3" points="315.47 287.06 218.7 286.27 275.34 236.71 200.6 213.89 90.46 112.4 136.87 65.2 244.66 88.8 187.74 160.78 200.6 213.89 218.7 286.27 153 254.02 85.73 158.03 200.6 213.89 153 254.02 81.01 226.48 125.86 178.1 189.93 64.4"/><path class="cls-1" d="M190.73,64.9a.94.94,0,1,0-1.28.36A.93.93,0,0,0,190.73,64.9Z"/></g><polyline class="cls-3" points="188.01 161.18 90.46 112.4 85.73 158.82 81.02 226.48 103.83 273.69"/><polyline class="cls-3" points="218.7 286.27 284.78 342.13 315.47 287.06 275.34 236.71"/><g class="cls-6"><polyline class="cls-3" points="187.59 160.39 136.87 65.2 189.59 63.62 267.47 73.85 316.25 121.84"/><path class="cls-1" d="M188.4,159.91a.94.94,0,1,1-1.27-.39A.94.94,0,0,1,188.4,159.91Z"/></g><polygon class="cls-5" points="316.25 121.84 442.13 63.62 444.89 161.18 316.25 121.84"/><polygon class="cls-5" points="316.25 442.84 408.3 375.57 347.72 342.13 316.25 442.84"/><g class="cls-6"><polyline class="cls-3" points="475.18 342.49 441.74 359.05 408.3 375.57 413.81 286.27 474.52 341.89"/><path class="cls-1" d="M473.85,342.55a.94.94,0,1,0-.06-1.33A.95.95,0,0,0,473.85,342.55Z"/></g><g class="cls-6"><polyline class="cls-3" points="528.67 273.69 475.18 342.53 479.5 254.02 527.85 273.35"/><path class="cls-1" d="M527.45,274.21a.94.94,0,1,0-.52-1.22A.94.94,0,0,0,527.45,274.21Z"/></g><g class="cls-6"><polyline class="cls-3" points="317.04 287.06 413.81 286.27 357.16 236.71 431.9 213.89 542.05 112.4 495.63 65.2 387.85 88.8 444.77 160.78 431.9 213.89 413.81 286.27 479.5 254.02 546.77 158.03 431.9 213.89 479.5 254.02 551.49 226.48 506.65 178.1 442.57 64.4"/><path class="cls-1" d="M443.41,64a1,1,0,0,0-1.28-.36.94.94,0,0,0-.35,1.28.94.94,0,1,0,1.63-.92Z"/></g><polyline class="cls-3" points="413.81 286.27 347.72 342.13 317.04 287.06 357.16 236.71"/><g class="cls-6"><polyline class="cls-3" points="444.91 160.39 495.63 65.2 442.92 63.62 365.03 73.85 316.25 121.84"/><path class="cls-1" d="M445.76,160.79a.94.94,0,0,1-1.27.39.93.93,0,0,1-.38-1.27.94.94,0,1,1,1.65.88Z"/></g><line class="cls-7" x1="284.78" y1="342.13" x2="347.72" y2="342.13"/></g><line class="cls-7" x1="267.47" y1="73.85" x2="244.66" y2="88.8"/><line class="cls-7" x1="365.03" y1="73.85" x2="387.85" y2="88.8"/><circle class="cls-1" cx="267.47" cy="73.85" r="0.79"/><circle class="cls-1" cx="365.03" cy="73.85" r="0.79"/><g class="cls-8"><path d="M213.51,168.22c0-6.18,4.49-10.82,10.47-10.82,4.14,0,7.16,1.82,9.28,5.6l-.55.4-.18-.06a9.22,9.22,0,0,0-8.55-5.19c-5.49,0-9.66,4.35-9.66,10.07A9.76,9.76,0,0,0,224,178.28a9.48,9.48,0,0,0,8.68-5.13l.17-.06.52.38c-2.2,3.74-5.28,5.57-9.34,5.57C218,179,213.51,174.42,213.51,168.22Z"/><path d="M237.92,165.9h.67v3.51c1-2.64,2.78-4.07,4.53-4.07a2.7,2.7,0,0,1,2.66,1.92l-.58.35h-.11a2.11,2.11,0,0,0-2.18-1.57c-2.06,0-4.29,2.81-4.29,5.77v6.67h-.7Z"/><path d="M252.48,178.22l-5.39-12.32h.81l4.93,11.45h.06l5.16-11.45h.81l-8.7,18.91h-.81Z"/><path d="M262,165.9h.7v3.48a6.21,6.21,0,0,1,5.77-4c3.54,0,6,2.7,6,6.71,0,4.17-2.41,7-6,7a6.14,6.14,0,0,1-5.71-4v9.75H262Zm11.72,6.15c0-3.6-2.18-6-5.37-6a5.9,5.9,0,0,0-5.71,6.32,5.79,5.79,0,0,0,5.69,6C271.62,178.37,273.74,175.9,273.74,172.05Z"/><path d="M284.27,178.6a5.56,5.56,0,0,1-2.18.44c-2.09,0-3-1.34-3-3.46v-9h-2.61v-.66h2.61v-4.85l.58-.38h.12v5.23h4.41v.66h-4.41v8.76c0,2.24.84,3.05,2.47,3.05a4.21,4.21,0,0,0,1.91-.44l.06,0Z"/><path d="M286.58,172.19a6.78,6.78,0,1,1,6.76,6.85A6.67,6.67,0,0,1,286.58,172.19Zm12.8,0a6,6,0,1,0-6,6.18A6,6,0,0,0,299.38,172.19Z"/><path d="M302.3,158h.84l3.63,11.54c.81,2.53,1.65,5,2.49,7.6h.12l2.44-7.6,3.56-11.34h.41l3.6,11.34c.81,2.53,1.62,5,2.4,7.6h.12c.81-2.55,1.68-5.07,2.5-7.6L328,158h.84l-6.67,20.94h-.58l-4.06-12.68c-.61-1.94-1.28-3.94-1.92-5.91h-.11c-.64,2-1.31,4-1.92,5.91l-4,12.68H309Z"/><path d="M330.81,172.1v.26c0,3.66,2.44,6,5.63,6a5.56,5.56,0,0,0,5-3l.11,0,.5.32a6.18,6.18,0,0,1-5.63,3.34c-3.74,0-6.3-2.76-6.3-6.85s2.56-6.85,6.15-6.85,5.95,2.56,5.95,6.44a1.23,1.23,0,0,1,0,.32Zm0-.63h10.59c-.09-3.37-2.12-5.46-5.2-5.46S331,168.19,330.84,171.47Z"/><path d="M345.19,172.13c0-4,2.73-6.79,6.21-6.79a6,6,0,0,1,5.6,4V157.22h.7v21.26H357V175a6.33,6.33,0,0,1-5.77,4C347.51,179,345.19,176.22,345.19,172.13Zm11.87.26c.08-3.54-2.47-6.35-5.57-6.35s-5.57,2.5-5.57,6.09,2.09,6.24,5.42,6.24A5.81,5.81,0,0,0,357.06,172.39Z"/><path d="M361.93,172.13c0-4,2.72-6.79,6.2-6.79a6,6,0,0,1,5.6,4V157.22h.7v21.26h-.67V175a6.33,6.33,0,0,1-5.77,4C364.25,179,361.93,176.22,361.93,172.13Zm11.86.26c.09-3.54-2.47-6.35-5.57-6.35s-5.57,2.5-5.57,6.09,2.09,6.24,5.43,6.24A5.8,5.8,0,0,0,373.79,172.39Z"/><path d="M379.59,160a.7.7,0,1,1,1.39,0,.7.7,0,1,1-1.39,0Zm.35,5.6h.69v12.87h-.69Z"/><path d="M386.84,165.9v3.42a6,6,0,0,1,5.45-4c3.13,0,4.76,1.89,4.76,5.63v7.51h-.7v-7c0-3.8-1.33-5.45-4.26-5.45a5.63,5.63,0,0,0-5.25,5.57v6.87h-.7V165.9Z"/><path d="M400.32,181.36c0-1.89,1.68-3.34,4.27-3.8-1.37-.41-2-.93-2-1.69,0-.92.87-1.59,2.44-1.82a4.24,4.24,0,0,1-3.63-4.18c0-2.64,2.27-4.53,5.22-4.53a6,6,0,0,1,2.56.56H413l0,.58-.09.11-2.84-.11a4.24,4.24,0,0,1,1.77,3.48c0,2.55-2,4.2-5.37,4.35-2,.14-3.19.64-3.19,1.48s1,1.19,3.74,1.65c4.32.73,6,1.68,6,3.68,0,2.44-2.59,4.07-6.44,4S400.32,183.65,400.32,181.36Zm12-.21c0-1.68-1.51-2.49-5.28-3.07l-1.3-.23c-2.85.32-4.64,1.65-4.64,3.45s2.2,3.19,5.51,3.19S412.3,183.18,412.3,181.15Zm-1.16-11.22c0-2.29-1.91-3.89-4.5-3.92s-4.49,1.57-4.49,3.89,1.83,3.74,4.47,3.77S411.14,172.16,411.14,169.93Z"/><path d="M415.05,176.22l.55-.35.12,0a4.41,4.41,0,0,0,4.12,2.47c2,0,3.6-1.13,3.6-2.67,0-1.39-.82-2.2-3.46-3.19-3.59-1.33-4.49-2.26-4.49-4s1.68-3.2,3.94-3.2a4.53,4.53,0,0,1,4.24,2.7l-.52.32-.12,0a3.94,3.94,0,0,0-3.65-2.32c-1.8,0-3.17,1.1-3.17,2.5s.73,2.06,4.06,3.36c2.91,1.16,3.89,2.09,3.89,3.8,0,1.92-1.88,3.37-4.38,3.37A5.11,5.11,0,0,1,415.05,176.22Z"/></g><polygon class="cls-9" points="303.17 124.45 315.47 142.59 315.47 132.03 303.17 124.45"/><polygon class="cls-10" points="315.47 132.03 315.47 142.59 327.66 124.45 315.47 132.03"/><polygon class="cls-11" points="324.82 109.86 332 122.68 342.06 122.72 324.82 109.86"/><polygon class="cls-12" points="342.06 122.72 332 122.68 324.73 135.57 342.06 122.72"/><polygon class="cls-13" points="306.23 109.8 288.99 122.66 299.06 122.62 306.23 109.8"/><polygon class="cls-14" points="299.06 122.62 288.99 122.66 306.33 135.5 299.06 122.62"/><polygon class="cls-9" points="315.46 100.62 303.16 122.03 315.46 116.27 315.46 100.62"/><polygon class="cls-15" points="327.76 122.03 315.46 100.62 315.46 116.27 327.76 122.03"/><polygon class="cls-10" points="315.46 116.27 315.46 129.66 327.76 122.03 315.46 116.27"/><polygon class="cls-15" points="303.16 122.03 315.46 129.66 315.46 116.27 303.16 122.03"/><polygon class="cls-16" points="332.31 144.68 335.77 137.75 318.87 143.8 332.31 144.68"/><polygon class="cls-17" points="318.87 143.8 335.77 137.75 339.22 130.82 318.87 143.8"/><polygon class="cls-18" points="312.07 143.8 295.17 137.75 298.62 144.68 312.07 143.8"/><polygon class="cls-19" points="291.72 130.82 295.17 137.75 312.07 143.8 291.72 130.82"/><g class="cls-20"><path d="M51.57,210.57h2.48L44,224.82v11.81h-2.2V224.86L31.73,210.57h2.56l4.17,5.94c1.48,2.08,3,4.21,4.43,6.37H43c1.41-2,2.92-4.21,4.43-6.37Z"/><path d="M69.1,210.17A13.43,13.43,0,1,1,56,223.6,13.07,13.07,0,0,1,69.1,210.17Zm0,24.8c6.33,0,10.94-5,10.94-11.37s-4.61-11.38-10.94-11.38-10.94,5-10.94,11.38S62.76,235,69.1,235Z"/><path d="M108.12,224c0,4.18-.36,7-1.83,9.21-1.62,2.42-4.43,3.78-8.28,3.78-3.6,0-6.16-1.18-7.81-3.27-1.8-2.27-2.27-5.33-2.27-9.5V210.57h2.19v13.5c0,3.92.44,6.55,1.8,8.31C93,233.82,95,235,98.12,235s5.32-1.22,6.47-3.06,1.41-4.21,1.41-7.77V210.57h2.12Z"/><path d="M115.36,210.57h7c3,0,5.37.36,7.2,1.55a6.45,6.45,0,0,1,3,5.61,6.63,6.63,0,0,1-2.74,5.51,9.55,9.55,0,0,1-4.21,1.55l8.71,11.84h-2.66L123.17,225h-5.61v11.66h-2.2ZM123,223.09c2.7,0,4.42-.46,5.68-1.51a5,5,0,0,0-.46-7.81c-1.41-.94-3.14-1.19-6-1.19h-4.64v10.51Z"/><path d="M149.34,210.57h2.2v24h12.92v2H149.34Z"/><path d="M180.45,210.17a13.43,13.43,0,1,1-13.14,13.43A13.08,13.08,0,0,1,180.45,210.17Zm0,24.8c6.33,0,10.94-5,10.94-11.37s-4.61-11.38-10.94-11.38-10.95,5-10.95,11.38S174.11,235,180.45,235Z"/><path d="M215.94,210.57h2.27l-10.12,26.06H205.9l-10.19-26.06h2.38l5.69,14.61c1.07,2.77,2.19,5.69,3.23,8.46h.08c1-2.81,2.16-5.72,3.24-8.53Z"/><path d="M223,210.57h14.43v2H225.2v9.51H236v2H225.2v10.51h12.56v2H223Z"/><path d="M253,232.34a12.75,12.75,0,0,0,7.7,2.63c3.5,0,6-1.69,6-5.07,0-3.85-3.35-4.68-6.73-5.62-3.74-1-7.41-2.41-7.41-7.13,0-4.46,3.24-7,7.95-7a13.66,13.66,0,0,1,7.31,2.05v2.38a13.06,13.06,0,0,0-7.34-2.38c-3.39,0-5.73,1.62-5.73,4.79,0,3.71,3.28,4.46,6.52,5.36,3.71,1,7.63,2.42,7.63,7.42,0,4.57-3.35,7.23-8.25,7.23a14.42,14.42,0,0,1-7.7-2.19Z"/><path d="M274.87,210.57h14.44v2H277.07v9.51H287.9v2H277.07v10.51h12.56v2H274.87Z"/><path d="M315.33,235.15a14.56,14.56,0,0,1-7.41,1.87c-8,0-13.61-5.83-13.61-13.39a13.1,13.1,0,0,1,13.57-13.46,15.5,15.5,0,0,1,7,1.66v2.44a12.78,12.78,0,0,0-7-2.05,11,11,0,0,0-11.37,11.38C296.51,230,301.08,235,308,235a12.64,12.64,0,0,0,7.3-2.27Z"/><path d="M341.4,224c0,4.18-.36,7-1.84,9.21-1.62,2.42-4.43,3.78-8.28,3.78-3.6,0-6.15-1.18-7.81-3.27-1.8-2.27-2.26-5.33-2.26-9.5V210.57h2.19v13.5c0,3.92.43,6.55,1.8,8.31,1.12,1.44,3.06,2.59,6.19,2.59s5.33-1.22,6.48-3.06,1.4-4.21,1.4-7.77V210.57h2.13Z"/><path d="M348.64,210.57h7c3,0,5.36.36,7.2,1.55a6.47,6.47,0,0,1,3,5.61,6.65,6.65,0,0,1-2.73,5.51,9.59,9.59,0,0,1-4.22,1.55l8.72,11.84h-2.67L356.45,225h-5.62v11.66h-2.19Zm7.66,12.52c2.7,0,4.43-.46,5.69-1.51a5,5,0,0,0-.47-7.81c-1.4-.94-3.13-1.19-6-1.19h-4.65v10.51Z"/><path d="M372.72,210.57h14.43v2H374.92v9.51h10.83v2H374.92v10.51h12.56v2H372.72Z"/><path d="M393.67,210.57h6.66c4.18,0,7.42.86,9.94,2.66a12.57,12.57,0,0,1,5.11,10.3,12.84,12.84,0,0,1-4.5,9.89c-2.56,2.13-6,3.21-11,3.21h-6.19Zm6.48,24c3.85,0,6.84-.72,9.14-2.59A11.07,11.07,0,0,0,409,215c-2.27-1.73-5.18-2.38-8.93-2.38h-4.24v22Z"/><path d="M431.18,210.57H446v2h-12.6v10h11.19v2H433.38v12h-2.2Z"/><path d="M463.83,210.17a13.43,13.43,0,1,1-13.14,13.43A13.07,13.07,0,0,1,463.83,210.17Zm0,24.8c6.34,0,10.95-5,10.95-11.37s-4.61-11.38-10.95-11.38-10.94,5-10.94,11.38S457.5,235,463.83,235Z"/><path d="M483,210.57h7c3,0,5.36.36,7.2,1.55a6.47,6.47,0,0,1,3,5.61,6.65,6.65,0,0,1-2.73,5.51,9.55,9.55,0,0,1-4.21,1.55L502,236.63h-2.67L490.8,225h-5.62v11.66H483Zm7.66,12.52c2.7,0,4.43-.46,5.69-1.51a5,5,0,0,0-.47-7.81c-1.4-.94-3.13-1.19-6-1.19h-4.65v10.51Z"/><path d="M507.07,210.57h14.44v2H509.27v9.51H520.1v2H509.27v10.51h12.56v2H507.07Z"/><path d="M545.48,210.57h2.27l-10.12,26.06h-2.19l-10.19-26.06h2.38l5.68,14.61c1.08,2.77,2.2,5.69,3.24,8.46h.08c1-2.81,2.15-5.72,3.23-8.53Z"/><path d="M552.54,210.57H567v2H554.73v9.51h10.84v2H554.73v10.51H567.3v2H552.54Z"/><path d="M573.49,210.57h7c3,0,5.37.36,7.2,1.55a6.47,6.47,0,0,1,3,5.61,6.65,6.65,0,0,1-2.73,5.51,9.55,9.55,0,0,1-4.21,1.55l8.71,11.84H589.8L581.3,225h-5.62v11.66h-2.19Zm7.67,12.52c2.7,0,4.42-.46,5.68-1.51a5,5,0,0,0-.46-7.81c-1.41-.94-3.14-1.19-6-1.19h-4.65v10.51Z"/><path d="M133.38,255.17a13.43,13.43,0,1,1-13.14,13.43A13.07,13.07,0,0,1,133.38,255.17Zm0,24.8c6.33,0,10.94-5,10.94-11.37s-4.61-11.38-10.94-11.38-10.95,5-10.95,11.38S127,280,133.38,280Z"/><path d="M152.53,281.63V255.57h2.09l11.91,15.87c1.73,2.31,3.24,4.36,4.9,6.62l.07,0c0-2.52,0-5.18,0-7.81V255.57h2.13v26.06H171.5l-11.92-15.88c-1.72-2.3-3.24-4.35-4.89-6.62l-.07,0c0,2.52,0,5.18,0,7.81v14.65Z"/><path d="M196.2,257.58h-9v-2h20.12v2h-9v24.05H196.2Z"/><path d="M212.76,255.57H215v11.52h15.77V255.57h2.19v26.06h-2.19V269.1H215v12.53h-2.19Z"/><path d="M240.48,255.57h14.43v2H242.67v9.51h10.84v2H242.67v10.51h12.56v2H240.48Z"/><path d="M271.33,255.57h6.76c3.1,0,5,.36,6.59,1.29a6.1,6.1,0,0,1,3,5.37,5.74,5.74,0,0,1-4.43,5.72V268a6.15,6.15,0,0,1,5.47,6.34,6.64,6.64,0,0,1-2.81,5.58c-1.62,1.15-3.63,1.69-7.84,1.69h-6.73Zm8.2,11.77c3.28,0,5.94-1.62,5.94-4.86a4.3,4.3,0,0,0-2.16-3.89c-1.19-.72-2.63-1-5.43-1h-4.36v9.76Zm-1.33,12.27c3.56,0,5.22-.47,6.41-1.33a4.78,4.78,0,0,0,1.91-3.92c0-3.24-2.67-5.19-6.77-5.19h-6.23v10.44Z"/><path d="M295.16,255.57h2.19v24h12.93v2H295.16Z"/><path d="M326.26,255.17a13.43,13.43,0,1,1-13.14,13.43A13.07,13.07,0,0,1,326.26,255.17Zm0,24.8c6.33,0,10.94-5,10.94-11.37s-4.61-11.38-10.94-11.38-10.94,5-10.94,11.38S319.92,280,326.26,280Z"/><path d="M364.92,280.15a14.56,14.56,0,0,1-7.41,1.87c-8,0-13.61-5.83-13.61-13.39a13.09,13.09,0,0,1,13.57-13.46,15.5,15.5,0,0,1,7,1.66v2.44a12.78,12.78,0,0,0-7-2A11,11,0,0,0,346.1,268.6c0,6.37,4.57,11.37,11.52,11.37a12.64,12.64,0,0,0,7.3-2.27Z"/><path d="M371.12,255.57h2.19v11.88l.07,0L386,255.57h2.78l-12.82,12.06,13.9,14h-3L373.38,268l-.07,0v13.61h-2.19Z"/><path d="M412.34,280.15a14.6,14.6,0,0,1-7.42,1.87c-8,0-13.61-5.83-13.61-13.39a13.1,13.1,0,0,1,13.57-13.46,15.5,15.5,0,0,1,7,1.66v2.44a12.78,12.78,0,0,0-7-2,11,11,0,0,0-11.37,11.38C393.51,275,398.08,280,405,280a12.7,12.7,0,0,0,7.31-2.27Z"/><path d="M418.53,255.57h2.2v11.52h15.76V255.57h2.2v26.06h-2.2V269.1H420.73v12.53h-2.2Z"/><path d="M454.24,255.57h2.09l10.9,26.06h-2.37l-3.2-7.78H448.88l-3.21,7.78h-2.26Zm4,9.82c-1-2.37-1.94-4.78-2.88-7.16h-.07c-.9,2.27-1.8,4.5-2.88,7.13l-2.66,6.48h11.12Z"/><path d="M472,255.57h2.2v26.06H472Z"/><path d="M481.71,281.63V255.57h2.09l11.91,15.87c1.73,2.31,3.24,4.36,4.9,6.62l.07,0c0-2.52,0-5.18,0-7.81V255.57h2.13v26.06h-2.09l-11.92-15.88c-1.72-2.3-3.24-4.35-4.89-6.62l-.07,0c0,2.52,0,5.18,0,7.81v14.65Z"/></g></g></svg>